{"title":"Mutiny.on.the.Bounty.1935.720p.BluRay.-Gabe.mkv","uid":6513520,"size":4674583693,"categoryP":"video","categoryS":"hd___movies","magnet":"?xt=urn:btih:b315874b0d0c7609d69f2bb706ed0139434f7c62&amp;dn=Mutiny.on.the.Bounty.1935.720p.BluRay.-Gabe.mkv&amp;tr=udp%3A%2F%2Ftracker.openbittorrent.com%3A80&amp;tr=udp%3A%2F%2Fopen.demonii.com%3A1337&amp;tr=udp%3A%2F%2Ftracker.coppersurfer.tk%3A6969&amp;tr=udp%3A%2F%2Fexodus.desync.com%3A6969","seeders":0,"leechers":1,"uploader":"-Gabe-","files":-1,"time":1309728895,"description":"File size                        : 4.35 GiB\nFrame rate                       : 23.976 fps\nBit rate                         : 4 600 Kbps\nDuration                         : 2h 12mn\nWidth                            : 986 pixels\nHeight                           : 720 pixels\nDisplay aspect ratio             : 4:3\nFrame rate                       : 23.976 fps\nBit depth                        : 8 bits\nStream size                      : 3.43 GiB (79%)\nAudio\nLanguage                         : English\nStream size                      : 91.1 MiB (2%)\nChannel(s)                     : 1 channel\nChannel positions           : Front: C\nSubtitles                         :  English, English(SHD), French, Deutsch, Deutsch (SHD), Norway, Portuguese, Romanian, Spanish, Spanish(Latin American)\n\n\n\nWon Oscar. Another 1 win &amp; 7 nominations\n\n &lt;a href=&quot;\nhttp://shareimage.ro/images/h2my4ed9uce7dueocs9y.jpg&quot; rel=&quot;nofollow&quot; target=&quot;_NEW&quot;&gt;\nhttp://shareimage.ro/images/h2my4ed9uce7dueocs9y.jpg&lt;/a&gt; &lt;a href=&quot;\nhttp://shareimage.ro/images/gf9k187g91m2v1rjme9.jpg&quot; rel=&quot;nofollow&quot; target=&quot;_NEW&quot;&gt;\nhttp://shareimage.ro/images/gf9k187g91m2v1rjme9.jpg&lt;/a&gt; &lt;a href=&quot;\nhttp://shareimage.ro/images/48cdsfcl1qcy9i0m4dv.jpg&quot; rel=&quot;nofollow&quot; target=&quot;_NEW&quot;&gt;\nhttp://shareimage.ro/images/48cdsfcl1qcy9i0m4dv.jpg&lt;/a&gt; &lt;a href=&quot;\nhttp://shareimage.ro/images/7mkkixyea2ky9txn2i.jpg&quot; rel=&quot;nofollow&quot; target=&quot;_NEW&quot;&gt;\nhttp://shareimage.ro/images/7mkkixyea2ky9txn2i.jpg&lt;/a&gt; &lt;a href=&quot;\nhttp://shareimage.ro/images/3v0zhyvl2qml006bro3b.jpg&quot; rel=&quot;nofollow&quot; target=&quot;_NEW&quot;&gt;\nhttp://shareimage.ro/images/3v0zhyvl2qml006bro3b.jpg&lt;/a&gt; &lt;a href=&quot;\nhttp://shareimage.ro/images/1bcoqkmxf1v87ev5qetz.jpg&quot; rel=&quot;nofollow&quot; target=&quot;_NEW&quot;&gt;\nhttp://shareimage.ro/images/1bcoqkmxf1v87ev5qetz.jpg&lt;/a&gt;\n\n\n","torrent":{"xt":"urn:btih:b315874b0d0c7609d69f2bb706ed0139434f7c62","amp;dn":"Mutiny.on.the.Bounty.1935.720p.BluRay.-Gabe.mkv","amp;tr":["udp%3A%2F%2Ftracker.openbittorrent.com%3A80","udp%3A%2F%2Fopen.demonii.com%3A1337","udp%3A%2F%2Ftracker.coppersurfer.tk%3A6969","udp%3A%2F%2Fexodus.desync.com%3A6969"],"infoHash":"b315874b0d0c7609d69f2bb706ed0139434f7c62","infoHashBuffer":{"type":"Buffer","data":[179,21,135,75,13,12,118,9,214,159,43,183,6,237,1,57,67,79,124,98]},"announce":[],"urlList":[]}}